<svg width="40" height="116" viewBox="0 0 40 116" fill="none" xmlns="http://www.w3.org/2000/svg">
<path d="M6 36H34L40 96H0L6 36Z" fill="#3C3489"/>
<path d="M0 96H40L34 116H6L0 96Z" fill="#7F77DD"/>
<path d="M27 6H13C11.3431 6 10 7.34315 10 9V35C10 36.6569 11.3431 38 13 38H27C28.6569 38 30 36.6569 30 35V9C30 7.34315 28.6569 6 27 6Z" fill="#B4B2A9"/>
<path d="M30 0H10C8.89543 0 8 0.89543 8 2V6C8 7.10457 8.89543 8 10 8H30C31.1046 8 32 7.10457 32 6V2C32 0.89543 31.1046 0 30 0Z" fill="#888780"/>
</svg>
