<svg width="508" height="149" viewBox="0 0 508 149" fill="none" xmlns="http://www.w3.org/2000/svg">
<path d="M6 52.5H34L40 112.5H0L6 52.5Z" fill="#3C3489"/>
<path d="M0 112.5H40L34 132.5H6L0 112.5Z" fill="#7F77DD"/>
<path d="M27 22.5H13C11.3431 22.5 10 23.8431 10 25.5V51.5C10 53.1569 11.3431 54.5 13 54.5H27C28.6569 54.5 30 53.1569 30 51.5V25.5C30 23.8431 28.6569 22.5 27 22.5Z" fill="#B4B2A9"/>
<path d="M30 16.5H10C8.89543 16.5 8 17.3954 8 18.5V22.5C8 23.6046 8.89543 24.5 10 24.5H30C31.1046 24.5 32 23.6046 32 22.5V18.5C32 17.3954 31.1046 16.5 30 16.5Z" fill="#888780"/>
<path d="M166.2 93.912C165.773 99.4587 163.981 104.237 160.824 108.248C157.752 112.259 153.485 115.331 148.024 117.464C142.563 119.512 136.077 120.536 128.568 120.536C120.717 120.536 113.677 119.299 107.448 116.824C101.304 114.264 96.44 110.552 92.856 105.688C89.3573 100.739 87.608 94.6373 87.608 87.384C87.608 80.1307 89.3573 74.0293 92.856 69.08C96.44 64.1307 101.304 60.376 107.448 57.816C113.677 55.256 120.717 53.976 128.568 53.976C136.077 53.976 142.52 55.0427 147.896 57.176C153.272 59.224 157.496 62.2107 160.568 66.136C163.725 70.0613 165.56 74.7973 166.072 80.344H150.84C149.389 76.0773 146.701 72.7493 142.776 70.36C138.851 67.9707 134.115 66.776 128.568 66.776C124.131 66.776 120.077 67.544 116.408 69.08C112.824 70.616 109.923 72.92 107.704 75.992C105.571 78.9787 104.504 82.776 104.504 87.384C104.504 91.9067 105.571 95.704 107.704 98.776C109.837 101.763 112.739 104.024 116.408 105.56C120.077 107.011 124.131 107.736 128.568 107.736C134.541 107.736 139.405 106.541 143.16 104.152C147 101.763 149.603 98.3493 150.968 93.912H166.2ZM236.542 119V84.056C236.542 80.5573 235.945 77.656 234.75 75.352C233.555 73.048 231.635 71.2987 228.99 70.104C226.43 68.9093 222.974 68.312 218.622 68.312C214.441 68.312 210.643 69.1227 207.23 70.744C203.817 72.28 201.043 74.328 198.91 76.888C196.777 79.3627 195.582 82.008 195.326 84.824L195.198 77.784C195.625 74.968 196.606 72.152 198.142 69.336C199.678 66.52 201.726 63.96 204.286 61.656C206.846 59.352 209.918 57.5173 213.502 56.152C217.171 54.7013 221.267 53.976 225.79 53.976C229.715 53.976 233.342 54.488 236.67 55.512C239.998 56.4507 242.899 57.944 245.374 59.992C247.849 62.04 249.769 64.6 251.134 67.672C252.499 70.6587 253.182 74.2 253.182 78.296V119H236.542ZM179.582 119V29.784H196.222V119H179.582ZM287.377 27.48V42.072H268.049V27.48H287.377ZM269.329 55.384H285.969V119H269.329V55.384ZM366.427 68.056L315.867 111.32L314.075 106.456H367.323V119H302.171V106.456L352.731 63.192L354.523 68.056H302.171V55.384H366.427V68.056ZM439.289 97.88H455.417C454.734 102.232 452.9 106.115 449.913 109.528C447.012 112.941 443.044 115.629 438.009 117.592C432.974 119.555 426.83 120.536 419.577 120.536C411.47 120.536 404.302 119.256 398.073 116.696C391.844 114.051 386.98 110.253 383.481 105.304C379.982 100.355 378.233 94.3813 378.233 87.384C378.233 80.3867 379.94 74.4133 383.353 69.464C386.766 64.4293 391.502 60.5893 397.561 57.944C403.705 55.2987 410.873 53.976 419.065 53.976C427.428 53.976 434.382 55.2987 439.929 57.944C445.476 60.5893 449.572 64.6 452.217 69.976C454.948 75.2667 456.1 82.0507 455.673 90.328H395.001C395.428 93.5707 396.622 96.5147 398.585 99.16C400.633 101.805 403.364 103.896 406.777 105.432C410.276 106.968 414.414 107.736 419.193 107.736C424.484 107.736 428.878 106.84 432.377 105.048C435.961 103.171 438.265 100.781 439.289 97.88ZM418.297 66.648C412.153 66.648 407.161 68.0133 403.321 70.744C399.481 73.3893 397.006 76.6747 395.897 80.6H439.161C438.734 76.3333 436.686 72.9627 433.017 70.488C429.433 67.928 424.526 66.648 418.297 66.648ZM469.335 29.784H485.975V119H469.335V29.784Z" fill="#26215C"/>
</svg>
