<svg width="63" height="65" viewBox="0 0 63 65" fill="none" xmlns="http://www.w3.org/2000/svg">
<path d="M55.5 3H7.5C4.18629 3 1.5 5.68629 1.5 9V57C1.5 60.3137 4.18629 63 7.5 63H55.5C58.8137 63 61.5 60.3137 61.5 57V9C61.5 5.68629 58.8137 3 55.5 3Z" fill="#26215C" stroke="#7F77DD" stroke-width="3"/>
<path d="M49.1 34.35C48.8 36.95 47.8833 39.1667 46.35 41C44.8167 42.8333 42.7333 44.2333 40.1 45.2C37.4667 46.1667 34.3333 46.65 30.7 46.65C27.6667 46.65 24.8833 46.3 22.35 45.6C19.85 44.9 17.6833 43.85 15.85 42.45C14.05 41.05 12.65 39.3167 11.65 37.25C10.65 35.15 10.15 32.7 10.15 29.9C10.15 27.1 10.65 24.65 11.65 22.55C12.65 20.45 14.05 18.7 15.85 17.3C17.6833 15.8667 19.85 14.8 22.35 14.1C24.8833 13.3667 27.6667 13 30.7 13C34.3333 13 37.4667 13.5 40.1 14.5C42.7667 15.5 44.8667 16.9333 46.4 18.8C47.9333 20.6333 48.8333 22.8667 49.1 25.5H42.5C42.0667 24.1 41.3333 22.9 40.3 21.9C39.3 20.8667 38 20.0833 36.4 19.55C34.8 19.0167 32.9 18.75 30.7 18.75C27.9667 18.75 25.5667 19.1833 23.5 20.05C21.4333 20.8833 19.8333 22.1333 18.7 23.8C17.5667 25.4333 17 27.4667 17 29.9C17 32.3 17.5667 34.3167 18.7 35.95C19.8333 37.5833 21.4333 38.8333 23.5 39.7C25.5667 40.5333 27.9667 40.95 30.7 40.95C32.9 40.95 34.7833 40.6833 36.35 40.15C37.95 39.6167 39.25 38.85 40.25 37.85C41.2833 36.85 42.0333 35.6833 42.5 34.35H49.1Z" fill="#EEEDFE"/>
<path d="M55.5 45H49.5C48.3954 45 47.5 45.8954 47.5 47V53C47.5 54.1046 48.3954 55 49.5 55H55.5C56.6046 55 57.5 54.1046 57.5 53V47C57.5 45.8954 56.6046 45 55.5 45Z" fill="#AFA9EC"/>
</svg>
